<?xml version="1.0" encoding="UTF-8"?>
<svg width="90px" height="90px" viewBox="0 0 90 90" version="1.1" xmlns="http://www.w3.org/2000/svg" xmlns:xlink="http://www.w3.org/1999/xlink">
    <!-- Generator: Sketch 52.4 (67378) - http://www.bohemiancoding.com/sketch -->
    <title>noun_operations_2451062</title>
    <desc>Created with Sketch.</desc>
    <g id="Page-1" stroke="none" stroke-width="1" fill="none" fill-rule="evenodd">
        <g id="noun_operations_2451062">
            <g id="Group">
                <path d="M88.5,51 L75,51 C69.3720717,51.0065895 64.7501334,55.4492342 64.521,61.0725 L60,69.2115 L60,63 C59.993387,57.2037515 55.2962485,52.506613 49.5,52.5 L40.5,52.5 C38.8431458,52.5 37.5,51.1568542 37.5,49.5 L37.5,45.981 C41.6855819,43.5799681 44.4509174,39.3023048 44.922,34.5 L45,34.5 C47.540535,34.5107726 49.8100249,32.9136982 50.65757,30.5186823 C51.5051151,28.1236664 50.7453238,25.4545938 48.7635,23.865 C49.2485838,21.6220877 49.3343974,19.3112122 49.017,17.0385 C52.1661081,15.4698532 54.1109697,12.208581 53.9942336,8.69234617 C53.8774975,5.17611136 51.7206138,2.05101366 48.4743989,0.694686314 C45.2281841,-0.661641036 41.4891224,2.38492493e-05 38.9055,2.388 C32.7989708,-0.926398182 25.3988105,-0.782484646 19.4257623,2.76682935 C13.4527141,6.31614335 9.78838413,12.7469885 9.78,19.695 C9.776125,20.4759242 9.81970531,21.2563623 9.9105,22.032 L10.401,26.193 C9.50183654,27.2583416 9.00591309,28.6059366 9,30 C9,33.3137085 11.6862915,36 15,36 L15.3945,36 C16.3034068,40.1429107 18.871789,43.7317057 22.5,45.9285 L22.5,49.5 C22.5,51.1568542 21.1568542,52.5 19.5,52.5 L10.5,52.5 C4.70375151,52.506613 0.00661295396,57.2037515 1.33226763e-15,63 L1.33226763e-15,90 L3,90 L3,63 C3.00495917,58.8599203 6.35992027,55.5049592 10.5,55.5 L15.15,55.5 L28.7235,77.292 C28.9937633,77.7267824 29.4671031,77.9937076 29.979,78 L30,78 C30.5052584,78.0000898 30.9766132,77.7458063 31.254,77.3235 L45.5715,55.5 L49.5,55.5 C53.6400797,55.5049592 56.9950408,58.8599203 57,63 L57,75 C57.000632,75.6831634 57.4628013,76.2796013 58.1241747,76.4507678 C58.785548,76.6219344 59.4790336,76.3245854 59.811,75.7275 L66.882,63 L75.45,63 L61.689,87.7725 L64.311,89.2275 L78.882,63 L79.5,63 C85.2962485,62.993387 89.993387,58.2962485 90,52.5 C90,52.1021753 89.8419647,51.7206444 89.5606602,51.4393398 C89.2793556,51.1580353 88.8978247,51 88.5,51 Z M45,31.5 L45,25.5 C46.6568542,25.5 48,26.8431458 48,28.5 C48,30.1568542 46.6568542,31.5 45,31.5 Z M51,9 C50.9986024,10.9865253 50.008931,12.8421591 48.36,13.95 C47.1479433,10.0545082 44.7712452,6.62400095 41.55,4.1205 C43.372562,2.81022318 45.7762604,2.63363086 47.7707443,3.66348106 C49.7652283,4.69333127 51.0130141,6.75536455 51,9 Z M29.49,3 C32.6308262,2.99184892 35.7093357,3.87617913 38.367,5.55 C42.2285523,7.98711907 44.9401787,11.8825121 45.885,16.35 C45.885,16.377 45.894,16.4055 45.9,16.4325 C46.3032416,18.4702256 46.3200329,20.5655737 45.9495,22.6095 C45.6364105,22.5478404 45.3189059,22.5112245 45,22.5 L45,21 C44.9977562,18.5146839 44.3793034,16.068703 43.2,13.881 C42.9820721,13.4781728 42.592049,13.1969805 42.141,13.1175 C41.6895246,13.0342805 41.2250163,13.165651 40.884,13.473 C35.2798123,18.4605431 28.4109515,21.8093463 21.03,23.1525 L16.368,24 L15,24 C14.3880698,24.006013 13.7808031,24.1072241 13.2,24.3 L12.9,21.6645 C12.82307,21.0083624 12.7865012,20.34812 12.7905,19.6875 C12.8094996,10.4744463 20.276935,3.0123769 29.49,3 Z M15,33 C13.3431458,33 12,31.6568542 12,30 C12,28.3431458 13.3431458,27 15,27 L15,32.5365 C15,32.6865 15.018,32.8455 15.0225,33 L15,33 Z M18,32.5365 L18,26.7525 L19.554,26.469 C19.5199946,26.6440051 19.5019207,26.8217321 19.5,27 C19.4993706,28.2873599 20.3201593,29.4316091 21.5397976,29.843651 C22.7594359,30.255693 24.105998,29.8436604 24.8862302,28.8196811 C25.6664624,27.7957018 25.7064073,26.388078 24.9855,25.3215 C30.8931099,23.7558261 36.4081035,20.9722718 41.1765,17.1495 C41.244,17.1825 41.3175,17.2035 41.388,17.2335 C41.7906665,18.4485477 41.9972538,19.7199712 42,21 L42,33 C41.9999623,36.3219552 40.6228587,39.4952666 38.1965959,41.7643269 C35.770333,44.0333873 32.5120185,45.1951558 29.1975,44.973 C22.7778019,44.4121655 17.8865065,38.9796497 18,32.5365 Z M30.033,73.716 L24.3,64.5 L36.087,64.5 L30.033,73.716 Z M38.0475,61.5 L22.4235,61.5 L18.6855,55.5 L19.5,55.5 C22.8137085,55.5 25.5,52.8137085 25.5,49.5 L25.5,47.2815 C26.6350728,47.6546103 27.8120723,47.8853747 29.004,47.9685 C29.343,47.9895 29.679,48 30.015,48 C31.5364049,47.9981231 33.0486829,47.7649591 34.5,47.3085 L34.5,49.5 C34.5,52.8137085 37.1862915,55.5 40.5,55.5 L41.9835,55.5 L38.0475,61.5 Z M79.5,60 L67.65,60 C68.367123,56.5100563 71.437142,54.0039184 75,54 L86.85,54 C86.132877,57.4899437 83.062858,59.9960816 79.5,60 Z M13.458,68.967 L12.3615,70.6935 C9.62571636,75.0037371 9.93005581,80.575861 13.119,84.5625 C13.3318031,84.8286183 13.4476598,85.1592595 13.4475,85.5 L13.4475,90 L10.4475,90 L10.4475,86.0115 C6.75793591,81.041995 6.51162764,74.3129485 9.828,69.087 L10.9245,67.359 L13.458,68.967 Z" id="Shape" fill="#FFFFFF" fill-rule="nonzero"></path>
                <path d="M72,22.5 C67.8578644,22.5 64.5,25.8578644 64.5,30 C64.5,34.1421356 67.8578644,37.5 72,37.5 C76.1421356,37.5 79.5,34.1421356 79.5,30 C79.4950408,25.8599203 76.1400797,22.5049592 72,22.5 Z M72,34.5 C70.1799199,34.5 68.5390566,33.4036102 67.8425421,31.7220754 C67.1460276,30.0405407 67.5310285,28.1050105 68.8180195,26.8180195 C70.1050105,25.5310285 72.0405407,25.1460276 73.7220754,25.8425421 C75.4036102,26.5390566 76.5,28.1799199 76.5,30 C76.5,32.4852814 74.4852814,34.5 72,34.5 Z" id="Shape" fill="#B8E986" fill-rule="nonzero"></path>
                <path d="M88.5,25.5 L86.301,25.5 C86.0374682,24.6622873 85.7001463,23.8496025 85.293,23.0715 L86.85,21.5145 C87.4355729,20.9287502 87.4355729,19.9792498 86.85,19.3935 L82.6065,15.15 C82.0207502,14.5644271 81.0712498,14.5644271 80.4855,15.15 L78.9285,16.707 C78.1505387,16.2995522 77.3378265,15.9622189 76.5,15.699 L76.5,13.5 C76.5,12.6715729 75.8284271,12 75,12 L69,12 C68.1715729,12 67.5,12.6715729 67.5,13.5 L67.5,15.699 C66.6621231,15.9627018 65.8494095,16.3005377 65.0715,16.7085 L63.5145,15.15 C62.9287502,14.5644271 61.9792498,14.5644271 61.3935,15.15 L57.15,19.3935 C56.5644271,19.9792498 56.5644271,20.9287502 57.15,21.5145 L58.707,23.0715 C58.6605,23.157 58.617,23.244 58.5735,23.331 C58.2265485,24.0303874 57.9341776,24.7555474 57.699,25.5 L55.5,25.5 C54.6715729,25.5 54,26.1715729 54,27 L54,33 C54,33.8284271 54.6715729,34.5 55.5,34.5 L57.699,34.5 C57.9625318,35.3377127 58.2998537,36.1503975 58.707,36.9285 L57.15,38.4855 C56.5644271,39.0712498 56.5644271,40.0207502 57.15,40.6065 L61.3935,44.85 C61.9792498,45.4355729 62.9287502,45.4355729 63.5145,44.85 L65.0715,43.293 C65.6936825,43.617913 66.3377411,43.8990934 66.999,44.1345 C67.164,44.193 67.3305,44.2485 67.5,44.3025 L67.5,46.5 C67.5,47.3284271 68.1715729,48 69,48 L75,48 C75.8284271,48 76.5,47.3284271 76.5,46.5 L76.5,44.301 C77.3378769,44.0372982 78.1505905,43.6994623 78.9285,43.2915 L80.4855,44.85 C81.0712498,45.4355729 82.0207502,45.4355729 82.6065,44.85 L86.85,40.6065 C87.4355729,40.0207502 87.4355729,39.0712498 86.85,38.4855 L85.2945,36.9285 C85.7011318,36.150346 86.0379512,35.3376625 86.301,34.5 L88.5,34.5 C89.3284271,34.5 90,33.8284271 90,33 L90,27 C90,26.1715729 89.3284271,25.5 88.5,25.5 Z M87,31.5 L85.155,31.5 C84.4543348,31.4993321 83.8465474,31.9838184 83.691,32.667 C83.3921264,33.9825573 82.8711635,35.2375349 82.1505,36.378 C81.7772316,36.9706417 81.8637783,37.7427133 82.359,38.238 L83.667,39.546 L81.546,41.667 L80.238,40.359 C79.742106,39.8634886 78.969136,39.7775338 78.3765,40.152 C77.2363764,40.8739443 75.9821027,41.3973614 74.667,41.7 C73.9870935,41.8547927 73.5035211,42.4577044 73.5,43.155 L73.5,45 L70.5,45 L70.5,43.155 C70.500127,42.4553436 70.0165379,41.8485234 69.3345,41.6925 C68.8827482,41.5899448 68.4374682,41.4607184 68.001,41.3055 C67.1680392,41.0089175 66.3702391,40.6215871 65.622,40.1505 C65.0293583,39.7772316 64.2572867,39.8637783 63.762,40.359 L62.454,41.667 L60.333,39.546 L61.641,38.238 C62.1362217,37.7427133 62.2227684,36.9706417 61.8495,36.378 C61.1288365,35.2375349 60.6078736,33.9825573 60.309,32.667 C60.1534526,31.9838184 59.5456652,31.4993321 58.845,31.5 L57,31.5 L57,28.5 L58.845,28.5 C59.5456652,28.5006679 60.1534526,28.0161816 60.309,27.333 C60.5190078,26.4103631 60.8382605,25.5160525 61.26,24.669 C61.44,24.309 61.6365,23.961 61.8495,23.619 C62.2219588,23.0266919 62.1354468,22.2555524 61.641,21.7605 L60.333,20.4525 L62.454,18.3315 L63.762,19.6395 C64.257894,20.1350114 65.030864,20.2209662 65.6235,19.8465 C66.7641237,19.1271849 68.0183716,18.6063145 69.333,18.306 C70.0150871,18.1507018 70.4992677,17.5445426 70.5,16.845 L70.5,15 L73.5,15 L73.5,16.845 C73.5000327,17.5451039 73.984366,18.1520769 74.667,18.3075 C75.9816284,18.6078145 77.2358763,19.1286849 78.3765,19.848 C78.969136,20.2224662 79.742106,20.1365114 80.238,19.641 L81.546,18.333 L83.667,20.454 L82.359,21.762 C81.8637783,22.2572867 81.7772316,23.0293583 82.1505,23.622 C82.8711635,24.7624651 83.3921264,26.0174427 83.691,27.333 C83.8465474,28.0161816 84.4543348,28.5006679 85.155,28.5 L87,28.5 L87,31.5 Z" id="Shape" fill="#6ECBEE" fill-rule="nonzero"></path>
                <path d="M37.5,70.5 L37.5,76.5 C37.5,77.3284271 38.1715729,78 39,78 L49.4565,78 C49.2821901,80.3969399 48.3869988,82.6851157 46.8885,84.564 C46.6760182,84.8297165 46.5601807,85.159774 46.56,85.5 L46.56,90 L49.56,90 L49.56,86.01 C51.2864996,83.6791809 52.2961774,80.8956603 52.4655,78 L52.5,78 C53.3284271,78 54,77.3284271 54,76.5 L54,70.5 C54,69.6715729 53.3284271,69 52.5,69 L50.115,69 L49.065,67.35 L46.533,68.9595 L46.5555,68.994 L39,68.994 C38.6011335,68.9939968 38.2186905,69.1528554 37.9372129,69.435459 C37.6557352,69.7180626 37.4984045,70.1011367 37.5,70.5 Z M40.5,72 L51,72 L51,75 L40.5,75 L40.5,72 Z" id="Shape" fill="#FFFFFF" fill-rule="nonzero"></path>
                <circle id="Oval" fill="#FFFFFF" cx="37.5" cy="27" r="3"></circle>
            </g>
        </g>
    </g>
</svg>