<?xml version="1.0" encoding="UTF-8"?>
<svg width="67px" height="96px" viewBox="0 0 67 96" version="1.1" xmlns="http://www.w3.org/2000/svg" xmlns:xlink="http://www.w3.org/1999/xlink">
    <!-- Generator: Sketch 52.4 (67378) - http://www.bohemiancoding.com/sketch -->
    <title>noun_Certificate_426773</title>
    <desc>Created with Sketch.</desc>
    <g id="Page-1" stroke="none" stroke-width="1" fill="none" fill-rule="evenodd">
        <g id="noun_Certificate_426773" fill-rule="nonzero">
            <path d="M32,17.2 C23.9,17.2 17.4,23.8 17.4,31.8 C17.4,39.9 24,46.4 32,46.4 C40.1,46.4 46.6,39.8 46.6,31.8 C46.6,23.8 40.1,17.2 32,17.2 Z M61.2,27.7 C59.9,26.5 59.4,24.6 60.1,23 L60.7,21.5 C61.7,19.2 60.4,16.6 58,15.9 L56.4,15.5 C54.7,15 53.5,13.5 53.4,11.7 L53.4,10 C53.3,7.5 51,5.7 48.6,6.1 L47,6.4 C45.2,6.7 43.5,5.9 42.7,4.3 L41.9,2.9 C40.7,0.7 37.9,0.1 35.9,1.5 L34.6,2.4 C33.2,3.4 31.2,3.4 29.8,2.4 L28.5,1.4 C26.5,-0.1 23.6,0.6 22.4,2.8 L21.6,4.2 C20.7,5.8 19,6.6 17.2,6.3 L15.6,6 C13.1,5.6 10.9,7.4 10.7,9.9 L10.6,11.5 C10.5,13.3 9.3,14.8 7.6,15.3 L6,15.8 C3.6,16.5 2.3,19.1 3.3,21.4 L3.9,22.9 C4.6,24.5 4.1,26.4 2.8,27.6 L1.6,28.7 C-0.3,30.3 -0.3,33.3 1.6,34.9 L2.8,36 C4.1,37.2 4.6,39.1 3.9,40.7 L3.3,42.2 C2.3,44.5 3.6,47.1 6,47.8 L7.6,48.2 C9.3,48.7 10.5,50.2 10.6,52 L10.7,53.6 C10.8,56.1 13.1,57.9 15.5,57.5 L17.1,57.2 C18.9,56.9 20.6,57.7 21.4,59.3 L22.2,60.7 C23.4,62.9 26.2,63.5 28.2,62.1 L29.5,61.2 C30.9,60.2 32.9,60.2 34.3,61.2 L35.6,62.2 C37.6,63.7 40.5,63 41.7,60.8 L42.5,59.4 C43.4,57.8 45.1,57 46.9,57.3 L48.5,57.6 C51,58 53.2,56.2 53.4,53.7 L53.5,52.1 C53.6,50.3 54.8,48.8 56.5,48.3 L58.1,47.9 C60.5,47.2 61.8,44.6 60.8,42.3 L60.2,40.8 C59.5,39.2 60,37.3 61.3,36.1 L62.5,35 C64.4,33.4 64.4,30.4 62.5,28.8 L61.2,27.7 Z M32,52.1 C20.8,52.1 11.8,43 11.8,31.9 C11.8,20.7 20.9,11.7 32,11.7 C43.2,11.7 52.2,20.8 52.2,31.9 C52.2,43 43.2,52.1 32,52.1 Z" id="Shape" fill="#FFFFFF"></path>
            <polygon id="Path" fill="#A4C754" points="33.1 35.6 29.8 38.9 26.5 35.6 23.3 32.4 26.6 29.1 29.8 32.3 37.4 24.7 40.7 28"></polygon>
            <path d="M0.6,87.3 L10.4,62.8 C11.7,63.4 13.2,63.8 14.7,63.8 C15.3,63.8 15.9,63.7 16.5,63.6 L16.7,63.6 L16.8,63.8 C18.5,67 22,69 25.8,69 C26.8,69 27.9,68.8 28.8,68.5 L18.5,94.4 C18.2,95.2 17.1,95.3 16.7,94.5 L11.8,85.9 C11.6,85.6 11.3,85.5 11,85.6 L1.8,88.5 C1,88.8 0.3,88 0.6,87.3 Z" id="Path" fill="#6ECBEE"></path>
            <path d="M48.4,94.8 L38,68.8 C39,69.1 40,69.3 41,69.3 C44.8,69.3 48.2,67.3 50,64 L50.1,63.8 L50.3,63.8 C50.9,63.9 51.5,64 52.1,64 C53.7,64 55.1,63.6 56.5,63 L66.3,87.7 C66.6,88.5 65.9,89.3 65.1,89 L55.9,86.1 C55.6,86 55.3,86.1 55.1,86.4 L50.2,95 C49.8,95.6 48.7,95.5 48.4,94.8 Z" id="Path-" fill="#6ECBEE"></path>
        </g>
    </g>
</svg>