<?xml version="1.0" encoding="UTF-8"?>
<svg width="104px" height="90px" viewBox="0 0 104 90" version="1.1" xmlns="http://www.w3.org/2000/svg" xmlns:xlink="http://www.w3.org/1999/xlink">
    <!-- Generator: Sketch 52.4 (67378) - http://www.bohemiancoding.com/sketch -->
    <title>noun_Construction_980185</title>
    <desc>Created with Sketch.</desc>
    <g id="Page-1" stroke="none" stroke-width="1" fill="none" fill-rule="evenodd">
        <g id="noun_Construction_980185">
            <g id="Group">
                <circle id="Oval" fill="#FFFFFF" cx="81.9459036" cy="17.4459036" r="1.39518072"></circle>
                <polygon id="Rectangle" fill="#FFFFFF" transform="translate(89.652444, 23.364449) rotate(-21.217278) translate(-89.652444, -23.364449) " points="88.9371544 11.0098845 90.3677342 11.0098845 90.3677342 35.7190128 88.9371544 35.7190128"></polygon>
                <circle id="Oval" fill="#FFFFFF" cx="50.3446988" cy="36.7431325" r="1.57373494"></circle>
                <path d="M37.8325301,55.6807229 C38.2301205,55.3022892 38.766506,55.0687952 39.3596386,55.0687952 C40.5838554,55.0687952 41.5771084,56.0616867 41.5771084,57.2866265 C41.5771084,58.5115663 40.5838554,59.5040964 39.3596386,59.5040964 C38.1346988,59.5040964 37.1414458,58.5112048 37.1414458,57.2866265 C37.1414458,57.1803614 37.1512048,57.0762651 37.1660241,56.9739759 C36.7912048,57.4973494 36.3209639,57.946988 35.7787952,58.2946988 C35.4115663,59.0121687 34.666988,59.5040964 33.8056627,59.5040964 C33.306506,59.5040964 32.8471084,59.3374699 32.4762651,59.0591566 C31.6557831,58.9680723 30.8992771,58.6810843 30.2483133,58.246988 C30.1846988,58.3792771 30.1084337,58.5039759 30.020241,58.6203614 L30.020241,61.2093976 L56.9259036,61.2093976 C59.0591566,61.2093976 60.7890361,59.4798795 60.7890361,57.3462651 C60.7890361,55.2126506 59.0595181,53.4831325 56.9259036,53.4831325 L38.1448193,53.4831325 C38.1307229,53.7654217 38.1180723,54.0440964 38.1010843,54.3292771 C38.0739759,54.8009639 37.9792771,55.2531325 37.8325301,55.6807229 Z M56.019759,55.0684337 C57.2446988,55.0684337 58.2379518,56.0613253 58.2379518,57.2862651 C58.2379518,58.5112048 57.2446988,59.5037349 56.019759,59.5037349 C54.7948193,59.5037349 53.8022892,58.5108434 53.8022892,57.2862651 C53.8026506,56.0616867 54.7951807,55.0684337 56.019759,55.0684337 Z M50.4661446,55.0684337 C51.6910843,55.0684337 52.6843373,56.0613253 52.6843373,57.2862651 C52.6843373,58.5112048 51.6910843,59.5037349 50.4661446,59.5037349 C49.2412048,59.5037349 48.2486747,58.5108434 48.2486747,57.2862651 C48.2486747,56.0616867 49.2412048,55.0684337 50.4661446,55.0684337 Z M44.9125301,55.0684337 C46.1374699,55.0684337 47.1307229,56.0613253 47.1307229,57.2862651 C47.1307229,58.5112048 46.1374699,59.5037349 44.9125301,59.5037349 C43.6875904,59.5037349 42.6950602,58.5108434 42.6950602,57.2862651 C42.6950602,56.0616867 43.6875904,55.0684337 44.9125301,55.0684337 Z" id="Shape" fill="#FFFFFF" fill-rule="nonzero"></path>
                <circle id="Oval" fill="#FFFFFF" cx="39.3592771" cy="57.2862651" r="1.04927711"></circle>
                <circle id="Oval" fill="#FFFFFF" cx="44.9125301" cy="57.2862651" r="1.04927711"></circle>
                <circle id="Oval" fill="#FFFFFF" cx="50.466506" cy="57.2862651" r="1.04927711"></circle>
                <circle id="Oval" fill="#FFFFFF" cx="56.0201205" cy="57.2862651" r="1.04927711"></circle>
                <path d="M38.319759,47.2756627 C38.319759,48.973012 38.2753012,50.766506 38.19,52.6243373 L57.5006024,52.6243373 L57.5006024,41.6493976 L66.9639759,24.1774699 L79.1851807,20.9613253 L87.9737349,40.2242169 L89.529759,39.5573494 L89.529759,41.3468675 L82.9228916,41.3468675 L79.3713253,38.316506 L77.4336145,39.326747 L82.276988,47.4083133 L91.9648193,47.4083133 L92.933494,41.3468675 L91.8549398,41.3468675 L91.8549398,38.5604819 L93.3148193,37.9348193 L82.8231325,10.2737349 L74.0483133,9.70156627 L76.7392771,15.5992771 L63.1015663,16.4515663 L52.7439759,31.1627711 L39.6386747,30.1857831 L39.6386747,34.5007229 L37.2271084,34.5007229 C37.9510843,38.0808434 38.3125301,42.3206024 38.319759,47.2756627 Z M81.9459036,19.5921687 C80.7607229,19.5921687 79.7996386,18.6314458 79.7996386,17.4459036 C79.7996386,16.2607229 80.7603614,15.2996386 81.9459036,15.2996386 C83.1318072,15.2996386 84.0925301,16.2603614 84.0925301,17.4459036 C84.0925301,18.6314458 83.1318072,19.5921687 81.9459036,19.5921687 Z M53.2301205,32.6342169 L53.2301205,39.4612048 L46.1006024,39.4612048 L46.1006024,32.1028916 L53.2301205,32.6342169 Z" id="Shape" fill="#FFFFFF" fill-rule="nonzero"></path>
                <rect id="Rectangle" fill="#FFFFFF" x="59.8178313" y="50.0783133" width="43.3489157" height="1.28783133"></rect>
                <path d="M3.09903614,56.9255422 C3.15542169,56.9255422 3.21325301,56.9240964 3.27072289,56.9204819 C4.86542169,56.826506 6.08168675,55.4584337 5.98807229,53.8644578 C5.84674699,51.4604819 5.78313253,49.2708434 5.78313253,47.2785542 C5.77120482,38.5246988 7.04674699,33.6086747 8.30060241,31.0424096 L8.30060241,85.2954217 C8.30060241,87.7640964 10.3019277,89.7639759 12.7691566,89.7639759 C15.2371084,89.7639759 17.2384337,87.7640964 17.2384337,85.2954217 L17.2384337,52.6673494 L18.9137349,52.6673494 L18.9137349,85.2954217 C18.9137349,87.7640964 20.9150602,89.7639759 23.3822892,89.7639759 C25.850241,89.7639759 27.8515663,87.7640964 27.8515663,85.2954217 L27.8515663,31.0579518 C28.0655422,31.4978313 28.2813253,32.0016867 28.4945783,32.589759 C29.5138554,35.4137349 30.3708434,40.046747 30.3675904,47.2785542 C30.3675904,49.2715663 30.303253,51.4612048 30.163012,53.8651807 C30.0704819,55.4598795 31.2874699,56.8272289 32.8814458,56.9204819 C32.9385542,56.9233735 32.9956627,56.9255422 33.0524096,56.9255422 C34.5722892,56.9255422 35.8471084,55.7389157 35.9363855,54.2027711 C36.0831325,51.696506 36.1510843,49.3951807 36.1510843,47.2789157 C36.1362651,36.369759 34.3940964,30.3318072 32.0175904,26.7010843 C30.8309639,24.8989157 29.4415663,23.743012 28.1580723,23.1028916 C26.8753012,22.4562651 25.7501205,22.3286747 25.1089157,22.3304819 C24.8779518,22.3304819 24.7051807,22.3453012 24.5971084,22.3586747 C24.5949398,22.3593976 24.5920482,22.3593976 24.5898795,22.3601205 L11.5590361,22.3601205 C11.5568675,22.3593976 11.5546988,22.3593976 11.553253,22.3586747 C11.4444578,22.3460241 11.2716867,22.329759 11.0421687,22.329759 C10.4006024,22.3283133 9.27433735,22.4562651 7.9926506,23.1036145 C6.04843373,24.066506 3.95240964,26.1759036 2.48566265,29.9125301 C1.00156627,33.6636145 0.00506024096,39.0881928 0,47.2785542 C0,49.3944578 0.068313253,51.696506 0.215421687,54.2031325 C0.305783133,55.7392771 1.57915663,56.9255422 3.09903614,56.9255422 Z" id="Path" fill="#FFFFFF"></path>
                <path d="M19.4024096,20.1907229 C23.2626506,19.5571084 26.2084337,16.2072289 26.2084337,12.1677108 C26.2084337,11.7719277 26.1787952,11.383012 26.1245783,11.0024096 L10.0279518,11.0024096 C9.97373494,11.383012 9.94337349,11.7719277 9.94337349,12.1677108 C9.94337349,16.2072289 12.8891566,19.5571084 16.7493976,20.1907229 C17.1813253,20.2615663 17.6240964,20.300241 18.0759036,20.300241 C18.5277108,20.300241 18.9708434,20.2615663 19.4024096,20.1907229 Z" id="Path" fill="#FFFFFF"></path>
                <path d="M9.57,8.09746988 C8.96783133,8.09746988 8.47987952,8.58614458 8.47987952,9.18831325 C8.47987952,9.79120482 8.96783133,10.2791566 9.57,10.2791566 L9.7153012,10.2791566 L26.436506,10.2791566 L26.5810843,10.2791566 C27.1839759,10.2791566 27.6719277,9.79120482 27.6719277,9.18831325 C27.6719277,8.58614458 27.1839759,8.09746988 26.5810843,8.09746988 L26.4314458,8.09746988 C26.4249398,7.85385542 26.4086747,7.61277108 26.3826506,7.37457831 C26.1043373,4.89759036 24.7456627,2.74843373 22.7873494,1.40963855 L22.7873494,2.07722892 C22.7873494,2.55361446 22.4013253,2.94072289 21.9245783,2.94072289 C21.4481928,2.94072289 21.0610843,2.5539759 21.0610843,2.07722892 L21.0610843,0.506746988 C20.3906024,0.250120482 19.6796386,0.0759036145 18.9383133,0 L18.9383133,2.07759036 C18.9383133,2.5539759 18.5522892,2.94108434 18.0755422,2.94108434 C17.5984337,2.94108434 17.2120482,2.55433735 17.2120482,2.07759036 L17.2120482,0 C16.4714458,0.0759036145 15.759759,0.250481928 15.0892771,0.507108434 L15.0892771,2.07759036 C15.0892771,2.5539759 14.703253,2.94108434 14.2257831,2.94108434 C13.7493976,2.94108434 13.363012,2.55433735 13.363012,2.07759036 L13.363012,1.41036145 C11.4054217,2.74915663 10.0463855,4.89795181 9.76915663,7.37457831 C9.74240964,7.61277108 9.72686747,7.85385542 9.72036145,8.09746988 L9.57,8.09746988 Z" id="Path" fill="#6ECBEE"></path>
                <polygon id="Path" fill="#A4C754" points="76.5954217 77.0671084 71.0953012 80.4256627 72.4507229 88.5415663 84.9686747 88.7504819 88.9912048 82.6991566 85.4092771 76.9210843"></polygon>
                <polygon id="Path" fill="#A4C754" points="49.8574699 78.6925301 45.0845783 81.6072289 47.0056627 88.4110843 54.7442169 89.3584337 60.6140964 83.58 55.5346988 80.0403614"></polygon>
                <polygon id="Path" fill="#A4C754" points="97.8946988 87.7872289 95.8955422 84.1528916 93.586988 84.6784337 90.6954217 84.9079518 88.8090361 88.0915663 93.3820482 88.5007229"></polygon>
                <polygon id="Path" fill="#A4C754" points="62.7184337 85.6312048 62.319759 88.1927711 65.0833735 88.7942169 69.0581928 88.1660241 67.2972289 84.9654217 65.0009639 83.6024096"></polygon>
                <polygon id="Path" fill="#A4C754" points="34.1425301 85.6312048 33.743494 88.1927711 36.5081928 88.7942169 40.4826506 88.1660241 38.7220482 84.9654217 36.4254217 83.6024096"></polygon>
            </g>
        </g>
    </g>
</svg>