<?xml version="1.0" encoding="UTF-8"?>
<svg width="95px" height="90px" viewBox="0 0 95 90" version="1.1" xmlns="http://www.w3.org/2000/svg" xmlns:xlink="http://www.w3.org/1999/xlink">
    <!-- Generator: Sketch 52.4 (67378) - http://www.bohemiancoding.com/sketch -->
    <title>noun_Flag_2369487</title>
    <desc>Created with Sketch.</desc>
    <g id="Page-1" stroke="none" stroke-width="1" fill="none" fill-rule="evenodd">
        <g id="noun_Flag_2369487">
            <g id="Group">
                <path d="M17.3076923,89.8432692 L7.69230769,89.8432692 C6.63019231,89.8432692 5.76923077,88.9821154 5.76923077,87.9201923 L5.76923077,6.18942308 C5.76923077,3.89019231 6.92442308,1.77365385 8.85923077,0.527692308 C9.75230769,-0.0475 10.9421154,0.210384615 11.5173077,1.10346154 C12.0923077,1.99653846 11.8346154,3.18653846 10.9415385,3.76153846 C10.1111538,4.29596154 9.61538462,5.20365385 9.61538462,6.18942308 L9.61538462,85.9971154 L15.3846154,85.9971154 L15.3846154,15.3101923 C15.3846154,14.2480769 16.2455769,13.3871154 17.3076923,13.3871154 C18.3698077,13.3871154 19.2307692,14.2480769 19.2307692,15.3101923 L19.2307692,87.9201923 C19.2307692,88.9821154 18.3698077,89.8432692 17.3076923,89.8432692 Z M17.2803846,7.61923077 C16.3065385,7.61923077 15.4711538,6.88192308 15.3696154,5.89211538 C15.3655769,5.85326923 15.3609615,5.815 15.3553846,5.77673077 C15.2053846,4.72538462 15.9363462,3.75134615 16.9876923,3.60134615 C18.0382692,3.45115385 19.0130769,4.18211538 19.1630769,5.23365385 C19.1755769,5.32173077 19.1865385,5.41057692 19.1955769,5.5 C19.3038462,6.55653846 18.5351923,7.50076923 17.4786538,7.60903846 C17.4121154,7.61576923 17.3459615,7.61923077 17.2803846,7.61923077 Z" id="Shape" fill="#FFFFFF" fill-rule="nonzero"></path>
                <path d="M69.1875,60.9969231 C63.0584615,60.9969231 57.0396154,58.6298077 51.2190385,56.3405769 C50.6846154,56.1303846 50.15,55.9201923 49.6155769,55.7117308 C48.6259615,55.3259615 48.1367308,54.2109615 48.5223077,53.2215385 C48.9078846,52.2321154 50.0221154,51.7425 51.0126923,52.1282692 C51.5505769,52.3380769 52.0886538,52.5494231 52.6267308,52.7611538 C58.3663462,55.0184615 63.7875,57.1505769 69.1873077,57.1505769 C74.9505769,57.1505769 79.8686538,54.6544231 84.6151923,49.3073077 L84.6151923,7.51557692 C83.3853846,8.61365385 82.1303846,9.56230769 80.8590385,10.3534615 C79.9573077,10.9146154 78.7715385,10.6384615 78.2103846,9.73653846 C77.6492308,8.83480769 77.9255769,7.64884615 78.8273077,7.08788462 C80.9561538,5.76326923 83.0592308,3.89596154 85.0775,1.53826923 C85.6011538,0.926730769 86.4501923,0.705961538 87.205,0.985 C87.96,1.26403846 88.4613462,1.98384615 88.4613462,2.78884615 L88.4613462,50.0278846 C88.4613462,50.4865385 88.2973077,50.93 87.9992308,51.2784615 C82.4015385,57.8178846 76.2480769,60.9969231 69.1875,60.9969231 Z M41.2005769,52.8007692 C41.0513462,52.8007692 40.9,52.7832692 40.7484615,52.7467308 L40.5694231,52.7040385 C39.5357692,52.4596154 38.8959615,51.4238462 39.1403846,50.3901923 C39.3848077,49.3565385 40.4211538,48.7167308 41.4542308,48.9611538 L41.6494231,49.0075 C42.6819231,49.2565385 43.3173077,50.295 43.0684615,51.3275 C42.8563462,52.2088462 42.0686538,52.8007692 41.2005769,52.8007692 Z M70.6051923,13.5990385 C69.5909615,13.5990385 68.7423077,12.8053846 68.6865385,11.7803846 C68.6288462,10.7198077 69.4419231,9.81326923 70.5023077,9.75557692 L70.6769231,9.74538462 C71.7382692,9.67653846 72.6505769,10.4832692 72.7175,11.5432692 C72.7844231,12.6032692 71.9794231,13.5169231 70.9194231,13.5838462 L70.7109615,13.5961538 C70.6759615,13.5980769 70.6403846,13.5990385 70.6051923,13.5990385 Z" id="Shape" fill="#F40707" fill-rule="nonzero"></path>
                <path d="M17.3073077,60.9973077 C17.0840385,60.9973077 16.8586538,60.9582692 16.6411538,60.8778846 C15.8859615,60.5988462 15.3846154,59.8792308 15.3846154,59.0740385 L15.3846154,10.9971154 C15.3846154,10.5384615 15.5484615,10.095 15.8467308,9.74653846 C21.3703846,3.29365385 27.4273077,0.156923077 34.3640385,0.156923077 C40.6075,0.156923077 46.7321154,2.67730769 52.6551923,5.11480769 C55.63,6.33903846 58.7059615,7.60480769 61.6851923,8.49230769 C62.7030769,8.79557692 63.2825,9.86653846 62.9792308,10.8844231 C62.6759615,11.9021154 61.6046154,12.4815385 60.5873077,12.1784615 C57.4217308,11.2355769 54.2544231,9.93211538 51.1915385,8.67153846 C45.3575,6.27076923 39.8471154,4.00307692 34.3640385,4.00307692 C28.7251923,4.00307692 23.9009615,6.45826923 19.2307692,11.7175 L19.2307692,54.3367308 C22.9396154,51.01 26.8796154,49.0480769 31.1790385,48.3715385 C32.2282692,48.2063462 33.2126923,48.9230769 33.3776923,49.9723077 C33.5426923,51.0215385 32.8261538,52.0057692 31.7769231,52.1709615 C27.0888462,52.9086538 22.8338462,55.5755769 18.7686538,60.3244231 C18.3959615,60.7598077 17.8584615,60.9973077 17.3073077,60.9973077 Z" id="Path" fill="#4A90E2" fill-rule="nonzero"></path>
                <path d="M63.4615385,59.0740385 C62.3996154,59.0740385 61.5384615,58.2128846 61.5384615,57.1509615 L61.5384615,10.9971154 C61.5384615,9.935 62.3996154,9.07403846 63.4615385,9.07403846 C64.5234615,9.07403846 65.3846154,9.935 65.3846154,10.9971154 L65.3846154,57.1509615 C65.3846154,58.2128846 64.5234615,59.0740385 63.4615385,59.0740385 Z" id="Path" fill="#FFFFFF"></path>
                <path d="M40.3846154,51.3817308 C39.3225,51.3817308 38.4615385,50.5205769 38.4615385,49.4586538 L38.4615385,3.30480769 C38.4615385,2.24269231 39.3225,1.38173077 40.3846154,1.38173077 C41.4467308,1.38173077 42.3076923,2.24269231 42.3076923,3.30480769 L42.3076923,49.4586538 C42.3076923,50.5205769 41.4467308,51.3817308 40.3846154,51.3817308 Z" id="Path" fill="#FFFFFF"></path>
                <path d="M92.3076923,89.8432692 L1.92307692,89.8432692 C0.860961538,89.8432692 0,88.9821154 0,87.9201923 C0,86.8582692 0.860961538,85.9971154 1.92307692,85.9971154 L92.3076923,85.9971154 C93.3696154,85.9971154 94.2307692,86.8582692 94.2307692,87.9201923 C94.2307692,88.9821154 93.3696154,89.8432692 92.3076923,89.8432692 Z" id="Path" fill="#FFFFFF"></path>
            </g>
        </g>
    </g>
</svg>