<?xml version="1.0" encoding="UTF-8"?>
<svg width="250px" height="187px" viewBox="0 0 400 300" version="1.1" xmlns="http://www.w3.org/2000/svg" xmlns:xlink="http://www.w3.org/1999/xlink">
    <!-- Generator: Sketch 52.4 (67378) - http://www.bohemiancoding.com/sketch -->
    <title>noun_House_2777009</title>
    <desc>Created with Sketch.</desc>
    <g id="Page-1" stroke="none" stroke-width="1" fill="none" fill-rule="evenodd">
        <g id="noun_House_2777009">
            <g id="Group">
                <path d="M385.695007,287.989204 L357.894737,287.989204 C354.601889,287.989204 351.956815,290.634278 351.956815,293.927126 C351.956815,297.219973 354.601889,299.865047 357.894737,299.865047 L385.695007,299.865047 C388.987854,299.865047 391.632928,297.219973 391.632928,293.927126 C391.632928,290.634278 388.933873,287.989204 385.695007,287.989204 Z" id="Path" fill="#50514F"></path>
                <path d="M332.631579,287.989204 L298.731444,287.989204 C295.438596,287.989204 292.793522,290.634278 292.793522,293.927126 C292.793522,297.219973 295.438596,299.865047 298.731444,299.865047 L332.631579,299.865047 C335.924426,299.865047 338.569501,297.219973 338.569501,293.927126 C338.569501,290.634278 335.924426,287.989204 332.631579,287.989204 Z" id="Path" fill="#50514F"></path>
                <path d="M277.08502,287.989204 L125.560054,287.989204 C122.267206,287.989204 119.622132,290.634278 119.622132,293.927126 C119.622132,297.219973 122.267206,299.865047 125.560054,299.865047 L277.031039,299.865047 C280.323887,299.865047 282.968961,297.219973 282.968961,293.927126 C282.968961,290.634278 280.377868,287.989204 277.08502,287.989204 Z" id="Path" fill="#50514F"></path>
                <path d="M104.615385,287.989204 L57.8137652,287.989204 C54.5209177,287.989204 51.8758435,290.634278 51.8758435,293.927126 C51.8758435,297.219973 54.5209177,299.865047 57.8137652,299.865047 L104.615385,299.865047 C107.908232,299.865047 110.553306,297.219973 110.553306,293.927126 C110.553306,290.634278 107.908232,287.989204 104.615385,287.989204 Z" id="Path" fill="#4A4A4A"></path>
                <path d="M34.439946,287.989204 L5.93792173,287.989204 C2.64507422,287.989204 0,290.634278 0,293.927126 C0,297.219973 2.64507422,299.865047 5.93792173,299.865047 L34.439946,299.865047 C37.7327935,299.865047 40.3778677,297.219973 40.3778677,293.927126 C40.3778677,290.634278 37.7327935,287.989204 34.439946,287.989204 Z" id="Path" fill="#4A4A4A"></path>
                <path d="M385.695007,256.842105 L352.280702,256.842105 L352.280702,182.726046 C365.883941,181.754386 376.410256,177.435897 384.183536,169.500675 C394.709852,158.866397 399.838057,142.294197 399.838057,118.974359 C399.838057,95.3306343 394.331984,66.82861 385.479082,44.6423752 C374.898785,18.0836707 360.97166,3.45479082 346.34278,3.45479082 C337.381916,3.45479082 328.852901,8.69095816 320.97166,19.0553306 C318.974359,21.6464238 319.51417,25.3711201 322.105263,27.3684211 C324.696356,29.365722 328.421053,28.8259109 330.418354,26.2348178 C334.197031,21.268556 339.973009,15.3306343 346.288799,15.3306343 C355.465587,15.3306343 365.991903,27.9082321 374.412955,49.0148448 C382.726046,69.9595142 387.908232,96.734143 387.908232,118.974359 C387.908232,138.731444 383.805668,152.928475 375.708502,161.133603 C370.148448,166.747638 362.42915,169.932524 352.226721,170.74224 L352.226721,127.395412 L373.063428,110.985155 C375.654521,108.933873 376.08637,105.209177 374.035088,102.672065 C371.983806,100.080972 368.259109,99.6491228 365.721997,101.700405 L352.280702,112.334683 L352.280702,78.488529 C352.280702,75.1956815 349.635628,72.5506073 346.34278,72.5506073 C343.049933,72.5506073 340.404858,75.1956815 340.404858,78.488529 L340.404858,134.62888 L322.753036,120.053981 C320.215924,117.948718 316.491228,118.326586 314.385965,120.863698 C312.280702,123.40081 312.65857,127.125506 315.195682,129.230769 L340.404858,150.067476 L340.404858,170.850202 C330.202429,169.986505 322.483131,166.801619 316.923077,161.241565 C308.825911,153.036437 304.723347,138.839406 304.723347,119.082321 C304.723347,109.74359 305.641026,99.2712551 307.422402,88.8529015 C307.962213,85.6140351 305.802969,82.537112 302.564103,81.9973009 C299.325236,81.4574899 296.248313,83.6167341 295.708502,86.8556005 C293.819163,98.0836707 292.847503,108.933873 292.847503,119.082321 C292.847503,129.554656 293.873144,138.623482 295.978408,146.450742 L234.224022,139.163293 L234.224022,20.9446694 C234.224022,20.0809717 234.062078,19.2712551 233.738192,18.5695007 L266.612686,11.7678812 C269.797571,11.120108 271.902834,7.98920378 271.20108,4.75033738 C270.553306,1.51147099 267.368421,-0.539811066 264.183536,0.16194332 L16.1403509,51.4439946 C12.9554656,52.0917679 10.8502024,55.2226721 11.5519568,58.4615385 C12.145749,61.268556 14.6288799,63.2118758 17.3819163,63.2118758 C17.7597841,63.2118758 18.1916329,63.1578947 18.5695007,63.1039136 L33.7921727,59.9730094 L33.7921727,130.418354 C33.7921727,133.711201 36.437247,136.356275 39.7300945,136.356275 C43.022942,136.356275 45.6680162,133.711201 45.6680162,130.418354 L45.6680162,59.3792173 C45.6680162,58.731444 45.560054,58.0836707 45.3441296,57.4898785 L222.348178,20.8906883 C222.348178,20.8906883 222.348178,20.8906883 222.348178,20.9446694 L222.348178,137.651822 L110.391363,124.426451 C107.152497,124.048583 104.183536,126.369771 103.805668,129.608637 C103.4278,132.847503 105.748988,135.816464 108.987854,136.194332 L134.089069,139.163293 L134.089069,256.842105 L114.925776,256.842105 C113.360324,249.932524 108.987854,243.724696 102.294197,238.974359 C97.5438596,235.62753 92.3616734,233.522267 87.9892038,232.496626 C85.7759784,218.839406 74.3319838,211.929825 53.9811066,211.929825 C38.6504723,211.929825 28.6639676,223.373819 25.1551957,233.306343 C17.1120108,234.17004 10.8502024,237.031039 6.63967611,241.781377 C2.15924426,246.801619 -3.19744231e-14,253.65722 -3.19744231e-14,262.780027 C-3.19744231e-14,266.072874 2.64507422,268.717949 5.93792173,268.717949 L163.940621,268.717949 L208.205128,268.717949 L220.296896,268.717949 L301.322537,268.717949 L385.695007,268.717949 C388.987854,268.717949 391.632928,266.072874 391.632928,262.780027 C391.632928,259.487179 388.933873,256.842105 385.695007,256.842105 Z M340.404858,256.842105 L323.832659,256.842105 L323.832659,179.379217 C328.744939,181.214575 334.251012,182.348178 340.404858,182.780027 L340.404858,256.842105 Z M175.816464,256.842105 L175.816464,183.859649 L196.329285,183.859649 L196.329285,256.842105 L175.816464,256.842105 Z M232.17274,256.842105 L232.17274,184.939271 L289.446694,184.939271 L289.446694,256.842105 L232.17274,256.842105 Z M220.296896,173.063428 L220.296896,256.842105 L208.205128,256.842105 L208.205128,171.983806 L163.940621,171.983806 L163.940621,256.842105 L145.910931,256.842105 L145.910931,140.566802 L298.02969,158.54251 C298.245614,158.596491 298.51552,158.596491 298.731444,158.596491 C299.325236,158.596491 299.865047,158.488529 300.404858,158.326586 C302.618084,162.591093 305.263158,166.315789 308.394062,169.500675 C309.527665,170.634278 310.661269,171.659919 311.902834,172.68556 L311.902834,256.788124 L301.268556,256.788124 L301.268556,173.063428 L220.296896,173.063428 Z" id="Shape" fill="#4A4A4A" fill-rule="nonzero"></path>
                <path d="M29.9055331,244.912281 L34.9797571,244.804318 L35.6815115,239.784076 C36.437247,234.385965 42.8070175,223.805668 53.9271255,223.805668 C74.7638327,223.805668 76.4912281,230.985155 76.4912281,237.678812 L76.4912281,243.616734 L82.4291498,243.616734 C84.8582996,243.616734 90.4723347,245.182186 95.4385965,248.636977 C98.8394062,251.012146 101.214575,253.765182 102.510121,256.788124 L12.3616734,256.788124 C13.8191633,248.475034 19.0553306,245.128205 29.9055331,244.912281 Z" id="Path" fill="#A4C754" fill-rule="nonzero"></path>
                <path d="M45.560054,199.406208 L45.560054,152.874494 C45.560054,149.581646 42.9149798,146.936572 39.6221323,146.936572 C36.3292848,146.936572 33.6842105,149.581646 33.6842105,152.874494 L33.6842105,199.406208 C33.6842105,202.699055 36.3292848,205.34413 39.6221323,205.34413 C42.9149798,205.34413 45.560054,202.645074 45.560054,199.406208 Z" id="Path" fill="#50514F"></path>
                <path d="M128.636977,62.780027 L63.8596491,62.780027 L63.8596491,112.820513 L128.582996,112.820513 L128.636977,62.780027 Z M116.761134,100.944669 L75.7894737,100.944669 L75.7894737,74.6558704 L116.761134,74.6558704 L116.761134,100.944669 Z" id="Shape" fill="#4A90E2" fill-rule="nonzero"></path>
                <path d="M147.098516,62.780027 L147.098516,112.820513 L211.821862,112.820513 L211.821862,62.780027 L147.098516,62.780027 Z M199.946019,100.944669 L158.974359,100.944669 L158.974359,74.6558704 L199.946019,74.6558704 L199.946019,100.944669 Z" id="Shape" fill="#4A90E2" fill-rule="nonzero"></path>
                <path d="M110.553306,161.835358 L60.0809717,161.835358 L60.0809717,205.020243 L110.553306,205.020243 L110.553306,161.835358 Z M98.6774629,193.144399 L71.9568151,193.144399 L71.9568151,173.711201 L98.6774629,173.711201 L98.6774629,193.144399 Z" id="Shape" fill="#4A90E2" fill-rule="nonzero"></path>
                <path d="M304.615385,72.1187584 C305.155196,72.2807018 305.641026,72.3346829 306.180837,72.3346829 C308.77193,72.3346829 311.20108,70.6072874 311.902834,67.9622132 C314.385965,58.9473684 317.300945,50.6882591 320.593792,43.3468286 C321.94332,40.3778677 320.593792,36.8151147 317.624831,35.5195682 C314.65587,34.1700405 311.093117,35.5195682 309.797571,38.488529 C306.234818,46.3697706 303.103914,55.2226721 300.512821,64.831309 C299.595142,68.0161943 301.48448,71.2550607 304.615385,72.1187584 Z" id="Path" fill="#A4C754"></path>
            </g>
        </g>
    </g>
</svg>
